<svg width="1200" height="340" viewBox="0 0 1200 340" fill="none" xmlns="http://www.w3.org/2000/svg" role="img" aria-labelledby="title desc">
  <title id="title">Cec1c profile sigil</title>
  <desc id="desc">A dark esoteric sigil banner using Winter, Lantern and Knock colors.</desc>
  <defs>
    <radialGradient id="glow" cx="50%" cy="42%" r="70%">
      <stop offset="0%" stop-color="#3d2468" stop-opacity="0.78"/>
      <stop offset="48%" stop-color="#140a22" stop-opacity="0.86"/>
      <stop offset="100%" stop-color="#05040a"/>
    </radialGradient>
    <linearGradient id="line" x1="120" y1="42" x2="1080" y2="298" gradientUnits="userSpaceOnUse">
      <stop stop-color="#95c8d2"/>
      <stop offset="0.5" stop-color="#d8c66b"/>
      <stop offset="1" stop-color="#9c55d4"/>
    </linearGradient>
    <filter id="soft">
      <feGaussianBlur stdDeviation="8"/>
    </filter>
  </defs>

  <rect width="1200" height="340" rx="28" fill="#05040a"/>
  <rect x="1" y="1" width="1198" height="338" rx="27" fill="url(#glow)" stroke="#2b223f" stroke-width="2"/>

  <g opacity="0.3">
    <path d="M100 82H590M100 258H710M144 112H498M148 226H560" stroke="#d8c66b" stroke-width="1"/>
    <path d="M86 170H424M785 64H1080M770 276H1090" stroke="#9c55d4" stroke-width="1"/>
  </g>

  <g transform="translate(846 44)">
    <circle cx="126" cy="126" r="108" stroke="url(#line)" stroke-width="2.5"/>
    <circle cx="126" cy="126" r="76" stroke="#d8c66b" stroke-opacity="0.56" stroke-width="1.4"/>
    <circle cx="126" cy="126" r="38" stroke="#bd4eb3" stroke-opacity="0.62" stroke-width="1.2"/>
    <path d="M126 18L188 234L34 96H218L64 234Z" stroke="#9c55d4" stroke-width="2" stroke-linejoin="round"/>
    <path d="M126 50L202 202H50L126 50Z" stroke="#d4772e" stroke-width="1.5" stroke-opacity="0.78"/>
    <path d="M18 126H234M126 18V234" stroke="#d8c66b" stroke-opacity="0.5" stroke-width="1"/>
    <circle cx="126" cy="126" r="7" fill="#d8c66b"/>
    <circle cx="126" cy="18" r="5" fill="#9c55d4"/>
    <circle cx="234" cy="126" r="5" fill="#d8c66b"/>
    <circle cx="126" cy="234" r="5" fill="#9c55d4"/>
    <circle cx="18" cy="126" r="5" fill="#95c8d2"/>
  </g>

  <g opacity="0.18" filter="url(#soft)">
    <circle cx="948" cy="165" r="95" fill="#9c55d4"/>
    <circle cx="230" cy="124" r="92" fill="#d8c66b"/>
  </g>

  <text x="110" y="138" fill="#f4ead1" font-family="JetBrains Mono, Consolas, monospace" font-size="72" font-weight="700">Cec1c</text>
  <text x="114" y="182" fill="#d8c66b" font-family="JetBrains Mono, Consolas, monospace" font-size="22">Winter / Lantern / Knock</text>
  <text x="114" y="224" fill="#b8ad90" font-family="JetBrains Mono, Consolas, monospace" font-size="20">MCP · reverse engineering · local automation</text>

  <g transform="translate(114 260)" font-family="JetBrains Mono, Consolas, monospace" font-size="15">
    <rect width="92" height="28" rx="14" fill="#95c8d2" fill-opacity="0.16" stroke="#95c8d2"/>
    <text x="17" y="19" fill="#d7f4f8">WINTER</text>
    <rect x="108" width="108" height="28" rx="14" fill="#e0d23f" fill-opacity="0.14" stroke="#d8c66b"/>
    <text x="126" y="19" fill="#fff3a0">LANTERN</text>
    <rect x="232" width="92" height="28" rx="14" fill="#9c55d4" fill-opacity="0.18" stroke="#9c55d4"/>
    <text x="250" y="19" fill="#e8d9ff">KNOCK</text>
  </g>
</svg>
